<svg width="555" height="555" xmlns="http://www.w3.org/2000/svg">

 <g>
  <title>background</title>
  <rect fill="none" id="canvas_background" height="402" width="582" y="-1" x="-1"/>
 </g>
 <g>
  <title>Layer 1</title>
  <g id="svg_1" fill="none" stroke-width="2">
   <path id="svg_2" d="m216.74,51.86c-24.15,4.03 -51.5,11.1 -73.11,22.85" stroke="#81bff2"/>
   <path id="svg_3" d="m143.63,74.71c-115.98,56.9 -131.3,192.76 -110.5,305.08c1.92,10.37 4.9,20 4.88,30.76q-0.05,23.87 0.02,47.73q0.03,12.58 1.51,18.68c4.64,19.18 19.69,34.89 38.27,40.73c33.19,10.42 68.21,-10.67 73.81,-44.73q0.89,-5.4 0.89,-19.96q0.01,-40.12 -0.03,-80.23q-0.02,-13.99 -1.21,-19.82c-5.32,-26.02 -28.21,-44.48 -54.48,-45.17q-26.53,-0.71 -45.11,19.82a0.34,0.34 0 0 1 -0.59,-0.21c-3.22,-80.46 16.18,-169.1 89.1,-214.85" stroke="#80cdf2"/>
   <path id="svg_4" d="m140.19,112.54c23.95,-14.86 50.66,-23.86 78.92,-28.66" stroke="#81bff2"/>
   <path id="svg_5" d="m219.11,83.88q36.42,-6.16 72.87,-4.6" stroke="#a2b3f2"/>
   <path id="svg_6" d="m291.98,79.28q34.37,0.79 67.49,9.21" stroke="#b5a7f3"/>
   <path id="svg_7" d="m359.47,88.49c60.04,14.34 106.64,53.41 128.44,111.65" stroke="#c798f3"/>
   <path id="svg_8" d="m487.91,200.14c15.52,40.3 20.35,84.63 18.64,127.58a0.27,0.27 0 0 1 -0.47,0.17q-10.72,-12.13 -25.46,-17.25" stroke="#d38bf3"/>
   <path id="svg_9" d="m480.62,310.64c-32.93,-9.9 -67.29,8.29 -74.33,42.21q-1.29,6.23 -1.29,19.91q0,44.74 0.02,89.49c0.01,39.01 35.35,65.95 73.45,55.85" stroke="#ca95f3"/>
   <path id="svg_10" d="m478.47,518.1c19.94,-5.97 35.26,-22.22 39.7,-42.45q1.32,-6.03 1.34,-19.91q0.03,-24.11 -0.07,-48.25q-0.02,-4.17 0.94,-8.4c19.44,-85.41 19.77,-187.52 -32.86,-262.41" stroke="#d38bf3"/>
   <path id="svg_11" d="m487.52,136.68c-30.49,-42.78 -74.67,-67.9 -124.74,-80.31" stroke="#c798f3"/>
   <path id="svg_12" d="m362.78,56.37q-29.03,-6.98 -58.67,-8.73" stroke="#b5a7f3"/>
   <path id="svg_13" d="m304.11,47.64q-44.02,-2.95 -87.37,4.22" stroke="#a2b3f2"/>
   <path id="svg_14" d="m304.11,47.64q-0.5,1.1 -1.88,1.36q-0.5,0.09 -0.23,0.52c0.44,0.71 0.58,0.94 0.35,1.82c-2.19,8.42 -5.58,16.25 -1.41,24.61q0.03,0.04 0,0.08q-0.09,0.14 -0.22,0.28q-0.19,0.21 0.09,0.16l1.31,-0.24a0.07,0.07 0 0 1 0.08,0.06q0.02,0.14 -0.07,0.26a0.38,0.01 -3.1 0 1 -0.37,0.03l-10.23,0.55q-0.34,0.02 -0.13,0.28q0.5,0.62 0.58,1.87" stroke="#585be6"/>
   <path id="svg_15" d="m219.11,83.88q-0.04,-7.03 0.66,-18.13q0.02,-0.41 -0.25,-0.51q-0.32,-0.11 -0.37,-0.45q-0.63,-4.25 -0.76,-10.27q-0.03,-1.54 -1.65,-2.66" stroke="#2473e5"/>
   <path id="svg_16" d="m140.19,112.54q0.23,-2.23 3.26,-3.55q0.54,-0.23 0.28,-0.77l-1.2,-2.5a0.44,0.34 -60.2 0 1 -0.03,-0.2q0.19,-3.22 0.34,-6.43c0.17,-3.44 1.27,-6.94 1.71,-10.57c0.38,-3.13 -1.04,-5.97 -0.78,-9.42q0.04,-0.56 -0.28,-1.01l-0.83,-1.14a0.56,0.56 0 0 1 0.14,-0.79q0.91,-0.62 0.83,-1.45" stroke="#018de4"/>
   <path id="svg_17" d="m362.78,56.37q-0.54,0.1 -0.66,0.97q-0.05,0.38 0.18,0.62q0.26,0.26 -0.04,0.47q-0.41,0.28 -0.48,0.82q-1.66,11.97 -2.91,23.99q-0.17,1.61 0.98,3.38q0.24,0.37 0.08,0.77l-0.46,1.1" stroke="#7d40e7"/>
   <path id="svg_18" d="m487.52,136.68l-0.3,0.6a0.54,0.54 0 0 1 -0.75,0.23l-3.36,-1.92q-0.71,-0.4 -1.06,0.33c-4.34,8.85 -2,17.3 -0.75,26.39q0.06,0.45 0.39,0.77q0.51,0.5 0.53,1.36q0.09,4.49 0.01,9.04q-0.01,0.44 0.22,0.82q1.67,2.75 -0.22,5.31a1.8,1.8 0 0 0 -0.21,1.8l6.84,15.6q0.19,0.42 0.01,0.84l-0.96,2.29" stroke="#9b24e7"/>
   <path id="svg_19" d="m478.47,518.1q0.48,-1.59 -0.33,-2.41q-0.4,-0.4 0.06,-0.74l1.45,-1.05q0.54,-0.39 -0.08,-0.62q-2.29,-0.87 -2.98,-3.17q-0.12,-0.41 -0.39,-0.09l-1.3,1.5q-0.43,0.51 -0.72,-0.1c-2.21,-4.74 -1.82,-10.33 -1.49,-16.61c0.3,-5.95 -0.92,-11.94 -0.27,-18.22c0.27,-2.52 -0.32,-5.05 -0.32,-7.52q0.09,-56.09 0.18,-112.18c0,-3.11 -0.67,-8.11 -0.11,-12.32q0.05,-0.4 -0.17,-0.73l-3.08,-4.57q-0.2,-0.3 -0.51,-0.49q-0.68,-0.42 -1.23,-0.91q-0.36,-0.31 -0.31,-0.79c0.26,-2.43 -0.44,-4.83 -0.15,-7.09q1.13,-8.55 2.25,-17.13q0.07,-0.55 0.6,-0.68q1.74,-0.41 3.46,0.21q0.44,0.16 0.84,-0.08q2.93,-1.76 6.75,-1.67" stroke="#9e21e7"/>
   <path id="svg_20" d="m152.5,184.6c-10.23,2.29 -17.83,8.51 -22.21,17.74c-6.26,13.19 -3.89,37.91 -21.05,41.62c-10.03,2.17 -20.4,1.99 -30.59,2.95a0.9,0.9 0 0 0 -0.41,1.65c6.64,4.38 18.4,4.61 26.15,5.38q8.98,0.89 13.68,-0.41c11.39,-3.15 16.94,-14.19 21.4,-24.5c3.13,-7.24 7.72,-18.79 15,-22.16" stroke="#d688f2"/>
   <path id="svg_21" d="m154.47,206.87c6.76,-0.78 10,11.96 11.58,17.37q10.17,34.72 14.19,51.51c4.75,19.87 14.01,40.94 36.81,43.05" stroke="#ca95f3"/>
   <path id="svg_22" d="m217.05,318.8q22.87,0.25 32.57,-20.39q12.16,-25.86 24.29,-51.74c3.21,-6.87 5.49,-15.4 9.69,-21.55" stroke="#b9a4f3"/>
   <path id="svg_23" d="m283.6,225.12c5.14,-5.85 10.51,-1.33 12.87,3.93q6.15,13.73 13.33,26.95c6.87,12.66 16.95,21.24 32.45,19.36" stroke="#a2b3f2"/>
   <path id="svg_24" d="m342.25,275.36c19.73,-2.89 29.96,-26.03 40.55,-39.81c15.45,-20.09 24.01,4.65 33.89,12.22q8.94,6.85 21.57,6.42q16.21,-0.54 32.42,-1.12c3.14,-0.11 8.01,-0.27 9.24,-3.9a0.99,0.98 36.5 0 0 -0.14,-0.91c-3.29,-4.59 -22.88,-3.26 -28.34,-3.23c-13.26,0.07 -24.07,-2.04 -30.8,-14.07c-3.72,-6.63 -7.03,-13.21 -13.72,-17.54c-22.21,-14.39 -44.4,16.78 -55.97,31.01q-3.68,4.53 -9.28,7.12" stroke="#81c3f1"/>
   <path id="svg_25" d="m341.67,251.55c-7.79,1.32 -11.21,-7.05 -13.54,-12.97c-7.99,-20.3 -17.64,-47.15 -45.65,-42.11" stroke="#a2b3f2"/>
   <path id="svg_26" d="m282.48,196.47c-11.97,3.75 -20.35,13.1 -26.68,23.34c-10.82,17.51 -18.17,37.45 -26.71,56.33c-2,4.43 -6.91,16.16 -12.63,11.93" stroke="#b9a4f3"/>
   <path id="svg_27" d="m216.46,288.07c-1.07,-1.77 -2.65,-3.74 -3.36,-5.62q-10.91,-28.78 -20.83,-57.91c-6.51,-19.12 -13.61,-43.21 -39.77,-39.94" stroke="#ca95f3"/>
   <path id="svg_28" d="m216.46,288.07q1.68,6.64 0.02,14.18q-0.47,2.14 0.65,8.07a1.61,1.57 -38.5 0 1 -0.12,0.95q-1.2,2.65 -1.4,5.55q-0.03,0.52 0.49,0.6l1.03,0.14q0.56,0.07 0.29,0.56l-0.37,0.68" stroke="#843ae7"/>
   <path id="svg_29" d="m154.47,206.87q0.04,-1 -0.69,-1.25q-0.33,-0.11 -0.37,-0.46q-0.23,-1.95 1.39,-2.56q0.51,-0.18 0.81,-0.62q4.65,-6.61 4.98,-14.74q0.02,-0.46 -0.29,-0.8q-0.97,-1.11 -2.3,-0.74q-1.09,0.31 -0.24,-0.43l0.28,-0.25a0.28,0.28 0 0 0 -0.19,-0.5l-5.35,0.08" stroke="#a01ee6"/>
   <path id="svg_30" d="m341.67,251.55q-2.78,12.17 0.58,23.81" stroke="#2477e4"/>
   <path id="svg_31" d="m283.6,225.12q-0.49,-1.06 0.2,-2.13q0.31,-0.48 0.88,-0.49q1.11,-0.02 1.66,-1.25q0.23,-0.54 -0.27,-0.83l-0.72,-0.43a1.1,1.05 11.6 0 1 -0.51,-0.74q-1.61,-9.84 0.71,-19.49q0.15,-0.63 0.77,-0.8q0.37,-0.1 0.44,-0.5a0.45,0.44 88.7 0 0 -0.53,-0.51q-1.86,0.41 -1.47,-0.34a0.67,0.67 0 0 0 -0.79,-0.95q-1.04,0.32 -1.49,-0.19" stroke="#5c58e6"/>
  </g>
  <path id="svg_33" d="m304.11,47.64q-0.5,1.1 -1.88,1.36q-0.5,0.09 -0.23,0.52c0.44,0.71 0.58,0.94 0.35,1.82c-2.19,8.42 -5.58,16.25 -1.41,24.61q0.03,0.04 0,0.08q-0.09,0.14 -0.22,0.28q-0.19,0.21 0.09,0.16l1.31,-0.24a0.07,0.07 0 0 1 0.08,0.06q0.02,0.14 -0.07,0.26a0.38,0.01 -3.1 0 1 -0.37,0.03l-10.23,0.55q-0.34,0.02 -0.13,0.28q0.5,0.62 0.58,1.87q-36.45,-1.56 -72.87,4.6q-0.04,-7.03 0.66,-18.13q0.02,-0.41 -0.25,-0.51q-0.32,-0.11 -0.37,-0.45q-0.63,-4.25 -0.76,-10.27q-0.03,-1.54 -1.65,-2.66q43.35,-7.17 87.37,-4.22z" fill="#4566e5"/>
  <path id="svg_34" d="m304.11,47.64q29.64,1.75 58.67,8.73q-0.54,0.1 -0.66,0.97q-0.05,0.38 0.18,0.62q0.26,0.26 -0.04,0.47q-0.41,0.28 -0.48,0.82q-1.66,11.97 -2.91,23.99q-0.17,1.61 0.98,3.38q0.24,0.37 0.08,0.77l-0.46,1.1q-33.12,-8.42 -67.49,-9.21q-0.08,-1.25 -0.58,-1.87q-0.21,-0.26 0.13,-0.28l10.23,-0.55a0.38,0.01 -3.1 0 0 0.37,-0.03q0.09,-0.12 0.07,-0.26a0.07,0.07 0 0 0 -0.08,-0.06l-1.31,0.24q-0.28,0.05 -0.09,-0.16q0.13,-0.14 0.22,-0.28q0.03,-0.04 0,-0.08c-4.17,-8.36 -0.78,-16.19 1.41,-24.61c0.23,-0.88 0.09,-1.11 -0.35,-1.82q-0.27,-0.43 0.23,-0.52q1.38,-0.26 1.88,-1.36z" fill="#6b4fe7"/>
  <path id="svg_35" d="m216.74,51.86q1.62,1.12 1.65,2.66q0.13,6.02 0.76,10.27q0.05,0.34 0.37,0.45q0.27,0.1 0.25,0.51q-0.7,11.1 -0.66,18.13c-28.26,4.8 -54.97,13.8 -78.92,28.66q0.23,-2.23 3.26,-3.55q0.54,-0.23 0.28,-0.77l-1.2,-2.5a0.44,0.34 -60.2 0 1 -0.03,-0.2q0.19,-3.22 0.34,-6.43c0.17,-3.44 1.27,-6.94 1.71,-10.57c0.38,-3.13 -1.04,-5.97 -0.78,-9.42q0.04,-0.56 -0.28,-1.01l-0.83,-1.14a0.56,0.56 0 0 1 0.14,-0.79q0.91,-0.62 0.83,-1.45c21.61,-11.75 48.96,-18.82 73.11,-22.85z" fill="#027fe4"/>
  <path id="svg_36" d="m362.78,56.37c50.07,12.41 94.25,37.53 124.74,80.31l-0.3,0.6a0.54,0.54 0 0 1 -0.75,0.23l-3.36,-1.92q-0.71,-0.4 -1.06,0.33c-4.34,8.85 -2,17.3 -0.75,26.39q0.06,0.45 0.39,0.77q0.51,0.5 0.53,1.36q0.09,4.49 0.01,9.04q-0.01,0.44 0.22,0.82q1.67,2.75 -0.22,5.31a1.8,1.8 0 0 0 -0.21,1.8l6.84,15.6q0.19,0.42 0.01,0.84l-0.96,2.29c-21.8,-58.24 -68.4,-97.31 -128.44,-111.65l0.46,-1.1q0.16,-0.4 -0.08,-0.77q-1.15,-1.77 -0.98,-3.38q1.25,-12.02 2.91,-23.99q0.07,-0.54 0.48,-0.82q0.3,-0.21 0.04,-0.47q-0.23,-0.24 -0.18,-0.62q0.12,-0.87 0.66,-0.97z" fill="#8f30e6"/>
  <path id="svg_37" d="m143.63,74.71q0.08,0.83 -0.83,1.45a0.56,0.56 0 0 0 -0.14,0.79l0.83,1.14q0.32,0.45 0.28,1.01c-0.26,3.45 1.16,6.29 0.78,9.42c-0.44,3.63 -1.54,7.13 -1.71,10.57q-0.15,3.21 -0.34,6.43a0.44,0.34 -60.2 0 0 0.03,0.2l1.2,2.5q0.26,0.54 -0.28,0.77q-3.03,1.32 -3.26,3.55c-72.92,45.75 -92.32,134.39 -89.1,214.85a0.34,0.34 0 0 0 0.59,0.21q18.58,-20.53 45.11,-19.82c26.27,0.69 49.16,19.15 54.48,45.17q1.19,5.83 1.21,19.82q0.04,40.11 0.03,80.23q0,14.56 -0.89,19.96c-5.6,34.06 -40.62,55.15 -73.81,44.73c-18.58,-5.84 -33.63,-21.55 -38.27,-40.73q-1.48,-6.1 -1.51,-18.68q-0.07,-23.86 -0.02,-47.73c0.02,-10.76 -2.96,-20.39 -4.88,-30.76c-20.8,-112.32 -5.48,-248.18 110.5,-305.08z" fill="#009be4"/>
  <path id="svg_38" d="m487.52,136.68c52.63,74.89 52.3,177 32.86,262.41q-0.96,4.23 -0.94,8.4q0.1,24.14 0.07,48.25q-0.02,13.88 -1.34,19.91c-4.44,20.23 -19.76,36.48 -39.7,42.45q0.48,-1.59 -0.33,-2.41q-0.4,-0.4 0.06,-0.74l1.45,-1.05q0.54,-0.39 -0.08,-0.62q-2.29,-0.87 -2.98,-3.17q-0.12,-0.41 -0.39,-0.09l-1.3,1.5q-0.43,0.51 -0.72,-0.1c-2.21,-4.74 -1.82,-10.33 -1.49,-16.61c0.3,-5.95 -0.92,-11.94 -0.27,-18.22c0.27,-2.52 -0.32,-5.05 -0.32,-7.52q0.09,-56.09 0.18,-112.18c0,-3.11 -0.67,-8.11 -0.11,-12.32q0.05,-0.4 -0.17,-0.73l-3.08,-4.57q-0.2,-0.3 -0.51,-0.49q-0.68,-0.42 -1.23,-0.91q-0.36,-0.31 -0.31,-0.79c0.26,-2.43 -0.44,-4.83 -0.15,-7.09q1.13,-8.55 2.25,-17.13q0.07,-0.55 0.6,-0.68q1.74,-0.41 3.46,0.21q0.44,0.16 0.84,-0.08q2.93,-1.76 6.75,-1.67q14.74,5.12 25.46,17.25a0.27,0.27 0 0 0 0.47,-0.17c1.71,-42.95 -3.12,-87.28 -18.64,-127.58l0.96,-2.29q0.18,-0.42 -0.01,-0.84l-6.84,-15.6a1.8,1.8 0 0 1 0.21,-1.8q1.89,-2.56 0.22,-5.31q-0.23,-0.38 -0.22,-0.82q0.08,-4.55 -0.01,-9.04q-0.02,-0.86 -0.53,-1.36q-0.33,-0.32 -0.39,-0.77c-1.25,-9.09 -3.59,-17.54 0.75,-26.39q0.35,-0.73 1.06,-0.33l3.36,1.92a0.54,0.54 0 0 0 0.75,-0.23l0.3,-0.6z" fill="#a717e7"/>
  <path id="svg_39" d="m216.46,288.07q1.68,6.64 0.02,14.18q-0.47,2.14 0.65,8.07a1.61,1.57 -38.5 0 1 -0.12,0.95q-1.2,2.65 -1.4,5.55q-0.03,0.52 0.49,0.6l1.03,0.14q0.56,0.07 0.29,0.56l-0.37,0.68c-22.8,-2.11 -32.06,-23.18 -36.81,-43.05q-4.02,-16.79 -14.19,-51.51c-1.58,-5.41 -4.82,-18.15 -11.58,-17.37q0.04,-1 -0.69,-1.25q-0.33,-0.11 -0.37,-0.46q-0.23,-1.95 1.39,-2.56q0.51,-0.18 0.81,-0.62q4.65,-6.61 4.98,-14.74q0.02,-0.46 -0.29,-0.8q-0.97,-1.11 -2.3,-0.74q-1.09,0.31 -0.24,-0.43l0.28,-0.25a0.28,0.28 0 0 0 -0.19,-0.5l-5.35,0.08c26.16,-3.27 33.26,20.82 39.77,39.94q9.92,29.13 20.83,57.91c0.71,1.88 2.29,3.85 3.36,5.62z" fill="#942be7"/>
  <path id="svg_40" d="m154.47,206.87c-7.28,3.37 -11.87,14.92 -15,22.16c-4.46,10.31 -10.01,21.35 -21.4,24.5q-4.7,1.3 -13.68,0.41c-7.75,-0.77 -19.51,-1 -26.15,-5.38a0.9,0.9 0 0 1 0.41,-1.65c10.19,-0.96 20.56,-0.78 30.59,-2.95c17.16,-3.71 14.79,-28.43 21.05,-41.62c4.38,-9.23 11.98,-15.45 22.21,-17.74l5.35,-0.08a0.28,0.28 0 0 1 0.19,0.5l-0.28,0.25q-0.85,0.74 0.24,0.43q1.33,-0.37 2.3,0.74q0.31,0.34 0.29,0.8q-0.33,8.13 -4.98,14.74q-0.3,0.44 -0.81,0.62q-1.62,0.61 -1.39,2.56q0.04,0.35 0.37,0.46q0.73,0.25 0.69,1.25z" fill="#ac11e5"/>
  <path id="svg_41" d="m341.67,251.55q-2.78,12.17 0.58,23.81c-15.5,1.88 -25.58,-6.7 -32.45,-19.36q-7.18,-13.22 -13.33,-26.95c-2.36,-5.26 -7.73,-9.78 -12.87,-3.93q-0.49,-1.06 0.2,-2.13q0.31,-0.48 0.88,-0.49q1.11,-0.02 1.66,-1.25q0.23,-0.54 -0.27,-0.83l-0.72,-0.43a1.1,1.05 11.6 0 1 -0.51,-0.74q-1.61,-9.84 0.71,-19.49q0.15,-0.63 0.77,-0.8q0.37,-0.1 0.44,-0.5a0.45,0.44 88.7 0 0 -0.53,-0.51q-1.86,0.41 -1.47,-0.34a0.67,0.67 0 0 0 -0.79,-0.95q-1.04,0.32 -1.49,-0.19c28.01,-5.04 37.66,21.81 45.65,42.11c2.33,5.92 5.75,14.29 13.54,12.97z" fill="#4566e5"/>
  <path id="svg_42" d="m282.48,196.47q0.45,0.51 1.49,0.19a0.67,0.67 0 0 1 0.79,0.95q-0.39,0.75 1.47,0.34a0.45,0.44 88.7 0 1 0.53,0.51q-0.07,0.4 -0.44,0.5q-0.62,0.17 -0.77,0.8q-2.32,9.65 -0.71,19.49a1.1,1.05 11.6 0 0 0.51,0.74l0.72,0.43q0.5,0.29 0.27,0.83q-0.55,1.23 -1.66,1.25q-0.57,0.01 -0.88,0.49q-0.69,1.07 -0.2,2.13c-4.2,6.15 -6.48,14.68 -9.69,21.55q-12.13,25.88 -24.29,51.74q-9.7,20.64 -32.57,20.39l0.37,-0.68q0.27,-0.49 -0.29,-0.56l-1.03,-0.14q-0.52,-0.08 -0.49,-0.6q0.2,-2.9 1.4,-5.55a1.61,1.57 -38.5 0 0 0.12,-0.95q-1.12,-5.93 -0.65,-8.07q1.66,-7.54 -0.02,-14.18c5.72,4.23 10.63,-7.5 12.63,-11.93c8.54,-18.88 15.89,-38.82 26.71,-56.33c6.33,-10.24 14.71,-19.59 26.68,-23.34z" fill="#7349e6"/>
  <path id="svg_43" d="m342.25,275.36q-3.36,-11.64 -0.58,-23.81q5.6,-2.59 9.28,-7.12c11.57,-14.23 33.76,-45.4 55.97,-31.01c6.69,4.33 10,10.91 13.72,17.54c6.73,12.03 17.54,14.14 30.8,14.07c5.46,-0.03 25.05,-1.36 28.34,3.23a0.99,0.98 36.5 0 1 0.14,0.91c-1.23,3.63 -6.1,3.79 -9.24,3.9q-16.21,0.58 -32.42,1.12q-12.63,0.43 -21.57,-6.42c-9.88,-7.57 -18.44,-32.31 -33.89,-12.22c-10.59,13.78 -20.82,36.92 -40.55,39.81z" fill="#0287e3"/>
  <path id="svg_44" d="m480.62,310.64q-3.82,-0.09 -6.75,1.67q-0.4,0.24 -0.84,0.08q-1.72,-0.62 -3.46,-0.21q-0.53,0.13 -0.6,0.68q-1.12,8.58 -2.25,17.13c-0.29,2.26 0.41,4.66 0.15,7.09q-0.05,0.48 0.31,0.79q0.55,0.49 1.23,0.91q0.31,0.19 0.51,0.49l3.08,4.57q0.22,0.33 0.17,0.73c-0.56,4.21 0.11,9.21 0.11,12.32q-0.09,56.09 -0.18,112.18c0,2.47 0.59,5 0.32,7.52c-0.65,6.28 0.57,12.27 0.27,18.22c-0.33,6.28 -0.72,11.87 1.49,16.61q0.29,0.61 0.72,0.1l1.3,-1.5q0.27,-0.32 0.39,0.09q0.69,2.3 2.98,3.17q0.62,0.23 0.08,0.62l-1.45,1.05q-0.46,0.34 -0.06,0.74q0.81,0.82 0.33,2.41c-38.1,10.1 -73.44,-16.84 -73.45,-55.85q-0.02,-44.75 -0.02,-89.49q0,-13.68 1.29,-19.91c7.04,-33.92 41.4,-52.11 74.33,-42.21z" fill="#942be7"/>
 </g>
</svg>