<?xml version="1.0" encoding="UTF-8" standalone="no"?>
<!DOCTYPE svg PUBLIC "-//W3C//DTD SVG 1.1//EN" "http://www.w3.org/Graphics/SVG/1.1/DTD/svg11.dtd">
<svg xmlns="http://www.w3.org/2000/svg" version="1.1" viewBox="0.00 0.00 512.00 512.00">
<path fill="#000000" d="
  M 512.00 127.30
  L 512.00 128.56
  C 511.62 130.05 511.56 131.74 511.22 133.12
  Q 489.42 221.35 467.57 309.55
  C 463.78 324.87 461.23 335.25 444.00 335.25
  Q 300.20 335.26 156.41 335.24
  C 142.49 335.24 132.62 333.62 129.15 319.07
  Q 98.25 189.75 67.38 60.54
  A 0.70 0.69 83.0 0 0 66.71 60.01
  Q 45.82 59.97 24.77 60.02
  Q 16.30 60.03 12.42 58.60
  Q 1.70 54.67 0.00 41.69
  L 0.00 39.95
  Q 1.75 27.08 12.35 23.14
  Q 16.18 21.72 24.33 21.73
  Q 50.03 21.78 75.75 21.74
  Q 85.71 21.72 89.57 23.26
  C 96.60 26.07 99.71 31.38 101.54 39.02
  Q 109.82 73.50 118.10 107.99
  A 0.67 0.66 -6.5 0 0 118.75 108.50
  Q 302.16 108.51 485.52 108.50
  Q 495.65 108.50 499.77 110.03
  Q 510.49 114.01 512.00 127.30
  Z
  M 430.83 296.75
  A 0.58 0.58 0.0 0 0 431.39 296.31
  L 468.22 147.47
  A 0.58 0.58 0.0 0 0 467.66 146.75
  L 128.08 146.75
  A 0.58 0.58 0.0 0 0 127.52 147.46
  L 163.08 296.30
  A 0.58 0.58 0.0 0 0 163.65 296.75
  L 430.83 296.75
  Z"
/>
<path fill="#000000" d="
  M 237.38 426.45
  A 63.73 63.73 0.0 0 1 173.65 490.18
  A 63.73 63.73 0.0 0 1 109.92 426.45
  A 63.73 63.73 0.0 0 1 173.65 362.72
  A 63.73 63.73 0.0 0 1 237.38 426.45
  Z
  M 199.04 426.45
  A 25.40 25.40 0.0 0 0 173.64 401.05
  A 25.40 25.40 0.0 0 0 148.24 426.45
  A 25.40 25.40 0.0 0 0 173.64 451.85
  A 25.40 25.40 0.0 0 0 199.04 426.45
  Z"
/>
<path fill="#000000" d="
  M 469.12 426.45
  A 63.73 63.73 0.0 0 1 405.39 490.18
  A 63.73 63.73 0.0 0 1 341.66 426.45
  A 63.73 63.73 0.0 0 1 405.39 362.72
  A 63.73 63.73 0.0 0 1 469.12 426.45
  Z
  M 430.79 426.45
  A 25.40 25.40 0.0 0 0 405.39 401.05
  A 25.40 25.40 0.0 0 0 379.99 426.45
  A 25.40 25.40 0.0 0 0 405.39 451.85
  A 25.40 25.40 0.0 0 0 430.79 426.45
  Z"
/>
</svg>
